<svg width="38" height="39" viewBox="0 0 38 39" fill="none" xmlns="http://www.w3.org/2000/svg">
<path d="M18.9901 38.5539C29.4338 38.5539 37.9001 30.0876 37.9001 19.6439C37.9001 9.20018 29.4338 0.733887 18.9901 0.733887C8.54637 0.733887 0.0800781 9.20018 0.0800781 19.6439C0.0800781 30.0876 8.54637 38.5539 18.9901 38.5539Z" fill="url(#paint0_linear_1105_3586)"/>
<path d="M7.08008 22.7301V22.4301C7.17008 22.1601 7.10008 21.8901 7.15008 21.6201C7.21008 21.3301 7.19008 21.0201 7.24008 20.7301C7.35008 20.0901 7.46008 19.4601 7.60008 18.8301C7.88008 17.6301 8.30008 16.4801 8.81008 15.3601C9.23008 14.4201 9.73008 13.5201 10.2901 12.6601C10.4001 12.4801 10.4701 12.2601 10.6801 12.1601C11.1601 11.9301 11.6501 11.7301 12.1601 11.5601C13.1701 11.2101 14.2001 10.9301 15.2501 10.7401C15.3501 10.7201 15.4001 10.7601 15.4401 10.8401C15.6001 11.1801 15.7801 11.5101 15.9401 11.8501C15.9701 11.9201 15.9901 11.9401 16.0901 11.9301C16.7401 11.8701 17.3901 11.8201 18.0401 11.7701C18.4301 11.7701 18.8101 11.7701 19.2001 11.7701C19.5501 11.8001 19.9001 11.8201 20.2501 11.8501C20.5401 11.8701 20.8301 11.8901 21.1101 11.9401C21.2401 11.9601 21.2701 11.9201 21.3101 11.8301C21.4701 11.4901 21.6401 11.1501 21.8001 10.8101C21.8301 10.7501 21.8601 10.7201 21.9301 10.7401C22.2001 10.7901 22.4601 10.8501 22.7301 10.9001C23.9001 11.1501 25.0301 11.5201 26.1501 11.9701C26.4601 12.0901 26.7301 12.2501 26.8801 12.5701C26.9301 12.6901 27.0301 12.8001 27.1001 12.9101C27.9201 14.2101 28.6001 15.5801 29.1001 17.0401C29.4301 18.0201 29.6901 19.0101 29.8601 20.0301C30.0101 20.9201 30.1001 21.8101 30.1101 22.7001C30.1101 23.0501 30.1101 23.4001 30.1101 23.7501C30.1001 24.1301 30.0901 24.5101 30.0601 24.9001C30.0601 25.0301 30.0801 25.1901 29.9501 25.2901C29.5501 25.5801 29.1401 25.8601 28.7101 26.1201C28.0401 26.5201 27.3601 26.9101 26.6501 27.2201C25.8901 27.5601 25.1301 27.8601 24.3401 28.1101C24.2101 28.1501 24.1501 28.1101 24.1001 28.0201C23.6901 27.4501 23.3301 26.8501 23.0001 26.2401C22.9601 26.1601 22.9601 26.1301 23.0601 26.0901C23.2601 26.0201 23.4501 25.9501 23.6401 25.8601C24.0701 25.6601 24.4901 25.4601 24.9001 25.2101C24.7801 25.1101 24.6701 25.0201 24.5601 24.9301C24.4801 24.8701 24.4001 24.8601 24.3101 24.9001C23.3101 25.3501 22.2801 25.6801 21.2101 25.8901C20.6401 26.0001 20.0601 26.1001 19.4801 26.1101C18.6001 26.1301 17.7201 26.1501 16.8401 26.0101C16.1901 25.9101 15.5601 25.7801 14.9301 25.6101C14.2501 25.4201 13.5901 25.1701 12.9501 24.8801C12.8901 24.8501 12.8301 24.8301 12.7701 24.8701C12.6301 24.9701 12.4901 25.0801 12.3501 25.1901C12.9701 25.5401 13.5801 25.8501 14.2201 26.0901C14.3201 26.1301 14.2901 26.1801 14.2601 26.2401C13.9301 26.8601 13.5501 27.4601 13.1501 28.0301C13.0801 28.1201 13.0201 28.1301 12.9101 28.0901C12.1201 27.8401 11.3501 27.5401 10.5901 27.1901C9.45008 26.6701 8.37008 26.0301 7.35008 25.2901C7.24008 25.2101 7.19008 25.1201 7.19008 25.0001C7.19008 24.7001 7.13008 24.4001 7.15008 24.1001C7.15008 24.0501 7.18008 23.9901 7.11008 23.9501V23.6501C7.17008 23.3401 7.17008 23.0301 7.11008 22.7201L7.08008 22.7301ZM16.8401 20.2801C16.8701 19.4001 16.4101 18.7001 15.8901 18.3401C15.2501 17.8901 14.2601 17.8701 13.6501 18.3801C12.9401 18.9501 12.6301 19.6901 12.7501 20.6001C12.8401 21.2901 13.1601 21.8501 13.7401 22.2501C14.4001 22.7201 15.2201 22.6801 15.8601 22.2501C16.5501 21.7801 16.8301 21.1001 16.8501 20.2801H16.8401ZM24.4601 20.2401C24.5001 19.8001 24.3601 19.3801 24.1301 18.9901C23.6601 18.1901 22.7901 17.8501 21.9101 18.0601C21.4301 18.1701 21.0701 18.4901 20.7901 18.8801C20.4901 19.3001 20.3501 19.7901 20.3401 20.2901C20.3401 20.7501 20.4801 21.1801 20.7201 21.5701C21.0201 22.0501 21.4401 22.4001 22.0001 22.5301C22.7301 22.6901 23.3501 22.4601 23.8501 21.9301C24.2801 21.4701 24.4901 20.9001 24.4501 20.2401H24.4601Z" fill="white"/>
<defs>
<linearGradient id="paint0_linear_1105_3586" x1="2.37008" y1="58.5839" x2="32.6701" y2="-12.3961" gradientUnits="userSpaceOnUse">
<stop stop-color="#FC5300"/>
<stop offset="0.11" stop-color="#FC5C04"/>
<stop offset="0.3" stop-color="#FC7411"/>
<stop offset="0.54" stop-color="#FD9D26"/>
<stop offset="0.82" stop-color="#FED443"/>
<stop offset="1" stop-color="#FFFD59"/>
</linearGradient>
</defs>
</svg>
