<svg width="39" height="39" viewBox="0 0 39 39" fill="none" xmlns="http://www.w3.org/2000/svg">
<path d="M19.45 38.5539C29.8937 38.5539 38.36 30.0876 38.36 19.6439C38.36 9.20018 29.8937 0.733887 19.45 0.733887C9.00633 0.733887 0.540039 9.20018 0.540039 19.6439C0.540039 30.0876 9.00633 38.5539 19.45 38.5539Z" fill="url(#paint0_linear_1105_3599)"/>
<path d="M5.54004 18.9059C5.59004 18.6859 5.62004 18.4659 5.68004 18.2559C5.90004 17.4359 6.37005 16.8359 7.14005 16.4559C10.66 14.7159 14.18 12.9559 17.7 11.2059C18.55 10.7859 19.3901 10.3459 20.2401 9.93591C20.8501 9.64591 21.47 9.67591 22.07 9.97591C23.19 10.5259 24.3 11.0759 25.43 11.6059C27.39 12.5359 29.36 13.4659 31.33 14.3859C31.42 14.4259 31.52 14.4659 31.61 14.5159C32.02 14.7659 32.0201 15.2659 31.6001 15.4959C31.3801 15.6259 31.14 15.7359 30.92 15.8559C26.74 18.0259 22.5601 20.2059 18.3801 22.3759C18.2601 22.4359 18.13 22.4859 18.01 22.5459C17.63 22.7259 17.26 22.6859 16.89 22.4859C16.1 22.0659 15.3101 21.6659 14.5201 21.2459C12.4401 20.1559 10.37 19.0559 8.29004 17.9659C7.79004 17.7059 7.40004 17.8359 7.17004 18.3459C6.92004 18.8959 6.93004 19.4659 7.04004 20.0459C7.19004 20.7659 7.47004 21.4159 8.06004 21.8959C8.15004 21.9659 8.25005 22.0259 8.35005 22.0759C10.7301 23.3359 13.12 24.5859 15.5 25.8459C15.54 25.8659 15.59 25.8859 15.65 25.9159C16.1 25.1159 16.77 24.6159 17.7 24.5459C18.63 24.4759 19.36 24.8559 19.94 25.5959C22.67 24.1459 25.4001 22.6859 28.1301 21.2359C28.1 21.0759 28.06 20.9159 28.04 20.7659C27.86 19.4059 28.7701 18.1859 30.16 17.9859C31.43 17.7959 32.67 18.6259 32.94 19.9759C33.3 21.7759 31.65 23.2959 29.84 22.8259C29.58 22.7559 29.33 22.6059 29.08 22.4759C28.99 22.4259 28.93 22.4159 28.84 22.4659C26.06 23.9759 23.28 25.4859 20.5 26.9859C20.41 27.0359 20.37 27.0959 20.36 27.1959C20.26 28.5559 19.1001 29.5759 17.7401 29.4959C16.6401 29.4359 15.7 28.6259 15.47 27.5559C15.44 27.4159 15.38 27.3459 15.26 27.2859C13.23 26.2459 11.21 25.1959 9.19005 24.1459C8.75005 23.9159 8.31004 23.6759 7.87004 23.4659C6.84004 22.9759 6.24004 22.1359 5.87004 21.0959C5.73004 20.6859 5.67005 20.2559 5.58005 19.8359C5.58005 19.7959 5.56005 19.7559 5.55005 19.7159C5.55005 19.4459 5.55005 19.1659 5.55005 18.8959L5.54004 18.9059ZM30.4901 21.2459C30.9201 21.2459 31.29 20.8859 31.3 20.4559C31.3 20.0159 30.94 19.6459 30.5 19.6359C30.06 19.6359 29.69 19.9959 29.69 20.4459C29.69 20.8759 30.0501 21.2459 30.4901 21.2459ZM17.09 27.0159C17.09 27.4559 17.43 27.8159 17.87 27.8259C18.32 27.8259 18.68 27.4759 18.69 27.0359C18.69 26.5959 18.33 26.2159 17.89 26.2159C17.46 26.2159 17.1 26.5759 17.09 27.0059V27.0159Z" fill="white"/>
<defs>
<linearGradient id="paint0_linear_1105_3599" x1="2.83004" y1="58.5839" x2="33.13" y2="-12.3961" gradientUnits="userSpaceOnUse">
<stop stop-color="#FC5300"/>
<stop offset="0.11" stop-color="#FC5C04"/>
<stop offset="0.3" stop-color="#FC7411"/>
<stop offset="0.54" stop-color="#FD9D26"/>
<stop offset="0.82" stop-color="#FED443"/>
<stop offset="1" stop-color="#FFFD59"/>
</linearGradient>
</defs>
</svg>
