<svg width="38" height="39" viewBox="0 0 38 39" fill="none" xmlns="http://www.w3.org/2000/svg">
<path d="M19.0902 38.5539C29.5339 38.5539 38.0002 30.0876 38.0002 19.6439C38.0002 9.20018 29.5339 0.733887 19.0902 0.733887C8.64647 0.733887 0.180176 9.20018 0.180176 19.6439C0.180176 30.0876 8.64647 38.5539 19.0902 38.5539Z" fill="url(#paint0_linear_1105_3616)"/>
<g clip-path="url(#clip0_1105_3616)">
<path d="M13.5468 12.8008C12.5794 12.8008 11.6215 12.9913 10.7277 13.3615C9.83398 13.7317 9.02188 14.2744 8.33782 14.9584C7.65376 15.6425 7.11114 16.4546 6.74093 17.3483C6.37072 18.2421 6.18018 19.2 6.18018 20.1674C6.18018 21.1349 6.37072 22.0928 6.74093 22.9865C7.11114 23.8803 7.65376 24.6924 8.33782 25.3765C9.02188 26.0605 9.83398 26.6031 10.7277 26.9734C11.6215 27.3436 12.5794 27.5341 13.5468 27.5341C14.5142 27.5341 15.4722 27.3436 16.3659 26.9734C17.2597 26.6031 18.0718 26.0605 18.7559 25.3765C19.4399 24.6924 19.9825 23.8803 20.3528 22.9865C20.723 22.0928 20.9135 21.1349 20.9135 20.1674C20.9135 19.2 20.723 18.2421 20.3528 17.3483C19.9825 16.4546 19.4399 15.6425 18.7559 14.9584C18.0718 14.2744 17.2597 13.7317 16.3659 13.3615C15.4722 12.9913 14.5142 12.8008 13.5468 12.8008ZM25.2468 13.6674C24.7916 13.6674 24.3408 13.8356 23.9202 14.1622C23.4996 14.4889 23.1174 14.9677 22.7955 15.5713C22.4736 16.1748 22.2183 16.8914 22.0441 17.68C21.8698 18.4686 21.7802 19.3139 21.7802 20.1674C21.7802 21.021 21.8698 21.8663 22.0441 22.6549C22.2183 23.4435 22.4736 24.1601 22.7955 24.7636C23.1174 25.3672 23.4996 25.846 23.9202 26.1727C24.3408 26.4993 24.7916 26.6674 25.2468 26.6674C25.7021 26.6674 26.1529 26.4993 26.5735 26.1727C26.9941 25.846 27.3762 25.3672 27.6981 24.7636C28.0201 24.1601 28.2754 23.4435 28.4496 22.6549C28.6238 21.8663 28.7135 21.021 28.7135 20.1674C28.7135 19.3139 28.6238 18.4686 28.4496 17.68C28.2754 16.8914 28.0201 16.1748 27.6981 15.5713C27.3762 14.9677 26.9941 14.4889 26.5735 14.1622C26.1529 13.8356 25.7021 13.6674 25.2468 13.6674ZM30.8802 14.5341C30.5354 14.5341 30.2047 15.1276 29.9609 16.1841C29.7171 17.2405 29.5802 18.6734 29.5802 20.1674C29.5802 21.6615 29.7171 23.0944 29.9609 24.1508C30.2047 25.2073 30.5354 25.8008 30.8802 25.8008C31.225 25.8008 31.5556 25.2073 31.7994 24.1508C32.0432 23.0944 32.1802 21.6615 32.1802 20.1674C32.1802 18.6734 32.0432 17.2405 31.7994 16.1841C31.5556 15.1276 31.225 14.5341 30.8802 14.5341Z" fill="white"/>
</g>
<defs>
<linearGradient id="paint0_linear_1105_3616" x1="2.47018" y1="58.5839" x2="32.7702" y2="-12.3961" gradientUnits="userSpaceOnUse">
<stop stop-color="#FC5300"/>
<stop offset="0.11" stop-color="#FC5C04"/>
<stop offset="0.3" stop-color="#FC7411"/>
<stop offset="0.54" stop-color="#FD9D26"/>
<stop offset="0.82" stop-color="#FED443"/>
<stop offset="1" stop-color="#FFFD59"/>
</linearGradient>
<clipPath id="clip0_1105_3616">
<rect width="26" height="26" fill="white" transform="translate(6.18018 6.73389)"/>
</clipPath>
</defs>
</svg>
