<svg width="39" height="39" viewBox="0 0 39 39" fill="none" xmlns="http://www.w3.org/2000/svg">
<path d="M19.63 38.5539C30.0737 38.5539 38.54 30.0876 38.54 19.6439C38.54 9.20018 30.0737 0.733887 19.63 0.733887C9.18627 0.733887 0.719971 9.20018 0.719971 19.6439C0.719971 30.0876 9.18627 38.5539 19.63 38.5539Z" fill="url(#paint0_linear_1105_3596)"/>
<path d="M9.90601 19.7526C9.90601 19.7526 9.84601 19.6826 9.81601 19.6426C9.66601 19.4326 9.69601 19.1626 9.87601 18.9826C10.016 18.8526 10.176 18.7626 10.346 18.6826C10.796 18.4726 11.256 18.2826 11.726 18.0926C14.676 16.9226 17.646 15.8226 20.626 14.7326C23.226 13.7826 25.826 12.8426 28.426 11.8926C28.616 11.8226 28.806 11.7626 28.996 11.7426C29.446 11.6926 29.696 11.8526 29.716 12.3426C29.716 12.6226 29.706 12.8926 29.656 13.1726C29.476 14.3826 29.196 15.5726 28.936 16.7626C28.726 17.7226 28.496 18.6826 28.276 19.6426C28.266 19.6926 28.256 19.7326 28.256 19.7826C28.096 20.4626 27.926 21.1426 27.766 21.8226C27.316 23.6726 26.866 25.5126 26.416 27.3626C26.366 27.5826 26.266 27.7826 26.116 27.9526C25.856 28.2326 25.536 28.2726 25.186 28.1926C25.006 28.1526 24.836 28.0726 24.686 27.9426C23.936 27.3026 23.126 26.7326 22.326 26.1626C21.786 25.7726 21.236 25.3926 20.686 25.0126C19.706 24.3326 18.726 23.6726 17.736 23.0026C17.666 22.9526 17.606 22.9026 17.536 22.8526C17.486 22.7426 17.536 22.6526 17.606 22.5726C17.676 22.5026 17.756 22.4326 17.826 22.3626C18.476 21.7726 19.136 21.1926 19.786 20.6026C20.336 20.1026 20.886 19.6026 21.436 19.0926C21.946 18.6226 22.466 18.1426 22.966 17.6626C23.716 16.9526 24.456 16.2326 25.186 15.4826C25.336 15.3326 25.476 15.1726 25.606 15.0126C25.676 14.9226 25.746 14.8326 25.806 14.7326C25.836 14.6926 25.866 14.6526 25.826 14.6026C25.786 14.5626 25.736 14.5826 25.696 14.6026C25.646 14.6226 25.606 14.6426 25.566 14.6626C25.456 14.7226 25.346 14.7826 25.236 14.8526C23.696 15.7626 22.186 16.7126 20.666 17.6626C18.776 18.8426 16.896 20.0326 15.006 21.2226C14.896 21.2926 14.786 21.3426 14.656 21.3326C14.516 21.2926 14.376 21.2526 14.246 21.2026C13.766 21.0526 13.296 20.8826 12.806 20.7426C12.296 20.6026 11.816 20.3926 11.306 20.2526C10.936 20.1526 10.576 20.0226 10.216 19.9026C10.096 19.8626 9.97601 19.8226 9.88601 19.7326L9.90601 19.7526Z" fill="white"/>
<defs>
<linearGradient id="paint0_linear_1105_3596" x1="3.00997" y1="58.5839" x2="33.31" y2="-12.3961" gradientUnits="userSpaceOnUse">
<stop stop-color="#FC5300"/>
<stop offset="0.11" stop-color="#FC5C04"/>
<stop offset="0.3" stop-color="#FC7411"/>
<stop offset="0.54" stop-color="#FD9D26"/>
<stop offset="0.82" stop-color="#FED443"/>
<stop offset="1" stop-color="#FFFD59"/>
</linearGradient>
</defs>
</svg>
