<svg width="39" height="39" viewBox="0 0 39 39" fill="none" xmlns="http://www.w3.org/2000/svg">
<path d="M19.2701 38.5539C29.7138 38.5539 38.1801 30.0876 38.1801 19.6439C38.1801 9.20018 29.7138 0.733887 19.2701 0.733887C8.8264 0.733887 0.360107 9.20018 0.360107 19.6439C0.360107 30.0876 8.8264 38.5539 19.2701 38.5539Z" fill="url(#paint0_linear_1105_3607)"/>
<path d="M29.6982 13.7731C30.1933 15.7036 30.1933 19.7336 30.1933 19.7336C30.1933 19.7336 30.1933 23.7636 29.6982 25.6941C29.423 26.7611 28.6181 27.6007 27.5987 27.8846C25.7473 28.4002 19.3599 28.4002 19.3599 28.4002C19.3599 28.4002 12.9759 28.4002 11.1212 27.8846C10.0974 27.5964 9.29361 26.7579 9.02169 25.6941C8.52661 23.7636 8.52661 19.7336 8.52661 19.7336C8.52661 19.7336 8.52661 15.7036 9.02169 13.7731C9.29686 12.706 10.1018 11.8664 11.1212 11.5826C12.9759 11.0669 19.3599 11.0669 19.3599 11.0669C19.3599 11.0669 25.7473 11.0669 27.5987 11.5826C28.6224 11.8707 29.4263 12.7092 29.6982 13.7731ZM17.1933 23.5252L23.6933 19.7336L17.1933 15.9419V23.5252Z" fill="white"/>
<defs>
<linearGradient id="paint0_linear_1105_3607" x1="2.65011" y1="58.5839" x2="32.9501" y2="-12.3961" gradientUnits="userSpaceOnUse">
<stop stop-color="#FC5300"/>
<stop offset="0.11" stop-color="#FC5C04"/>
<stop offset="0.3" stop-color="#FC7411"/>
<stop offset="0.54" stop-color="#FD9D26"/>
<stop offset="0.82" stop-color="#FED443"/>
<stop offset="1" stop-color="#FFFD59"/>
</linearGradient>
</defs>
</svg>
